# xmcd
#
# Track frame offsets:
# 150
# 28760
# 58706
# 85944
# 108358
# 136869
# 167053
# 189616
# 219750
# 246131
# 276298
# 305727
# 330380
#
# Disc length: 4726 seconds
#
#
# Revision: 0
# Processed by: cddbd v1.5.1PL0 Copyright (c) Steve Scherf et al.
# Submitted via: FreeRIP 2.51 
#
DISCID=b412740d
DTITLE=Kenny J - Sweet Soca
DYEAR=1900
DGENRE=Blues
TTITLE0=Addicted To Sweet Soca
TTITLE1=Ah Have It
TTITLE2=Drug Abuse Is Destructive
TTITLE3=Feeling Sweet
TTITLE4=Get Down and Soca
TTITLE5=Jail Eh Nice
TTITLE6=Keep The Feeling
TTITLE7=Leave She Alone
TTITLE8=Only Time Will Tell
TTITLE9=Pan Forever
TTITLE10=Pray For T&T
TTITLE11=Slow Down (AIDS is a Killer)
TTITLE12=Yuh Treatin Me So Bad
EXTD=
EXTT0=
EXTT1=
EXTT2=
EXTT3=
EXTT4=
EXTT5=
EXTT6=
EXTT7=
EXTT8=
EXTT9=
EXTT10=
EXTT11=
EXTT12=
PLAYORDER=
